<?xml version="1.0" encoding="UTF-8" standalone="no"?>
<!-- Created with Inkscape (http://www.inkscape.org/) -->
<svg
   xmlns:svg="http://www.w3.org/2000/svg"
   xmlns="http://www.w3.org/2000/svg"
   version="1.0"
   width="744.09448"
   height="247.67715"
   id="svg23104">
  <defs
     id="defs23106" />
  <g
     transform="translate(-2414.5267,2732.6857)"
     id="layer1">
    <g
       transform="matrix(6.3650303,0,0,6.3650303,2318.4953,-6570.7046)"
       id="g9111">
      <path
         d="M 48.67846,626.99342 L 45.918666,622.07679 L 55.877923,622.07679 L 50.883295,611.48008 L 43.548843,626.99342 L 34.774497,626.99342 L 46.26364,606.05498 L 55.502951,606.05498 L 66.9021,626.99342 L 48.67846,626.99342"
         style="fill:#ec1248;fill-rule:evenodd;stroke:none"
         id="path7530" />
      <path
         d="M 66.947097,614.82783 L 77.881281,614.82783 C 80.626076,614.82783 81.735994,614.65984 81.735994,612.70999 C 81.735994,610.84413 80.85106,610.63264 78.001272,610.63264 L 66.9021,610.63264 L 64.442284,606.05498 L 79.861134,606.05498 C 87.15059,606.05498 89.865387,609.23475 89.865387,612.62449 C 89.865387,615.88825 87.375573,619.49098 79.36617,619.49098 L 75.721442,619.49098 L 75.721442,626.99342 L 66.9021,626.99342 L 66.9021,614.82783 L 66.947097,614.82783"
         style="fill:#ec1248;fill-rule:evenodd;stroke:none"
         id="path7532" />
      <path
         d="M 112.72368,625.42454 C 110.08388,626.65445 106.82912,627.2469 103.34938,627.2469 C 92.835166,627.2469 89.235434,621.39734 89.235434,616.5662 C 89.235434,610.46315 94.575036,605.758 103.76935,605.758 C 107.1291,605.758 110.03888,606.26647 112.4987,607.1994 L 112.4987,613.26044 C 109.96389,611.90455 107.75905,611.31059 105.17924,611.31059 C 100.76957,611.31059 97.169842,613.30244 97.169842,616.4807 C 97.169842,619.61847 100.84457,621.65232 105.25424,621.65232 C 107.80405,621.65232 109.87389,621.14386 112.72368,619.82995 L 112.72368,625.42454"
         style="fill:#ec1248;fill-rule:evenodd;stroke:none"
         id="path7534" />
      <path
         d="M 113.32364,608.66179 C 113.32364,607.89385 113.93859,607.32989 114.67354,607.32989 C 115.40848,607.32989 116.02344,607.89385 116.02344,608.66179 C 116.02344,609.43423 115.40848,609.99819 114.67354,609.99819 C 113.93859,609.99819 113.32364,609.43423 113.32364,608.66179 z M 114.67354,609.7762 C 115.27349,609.7762 115.75346,609.30374 115.75346,608.66179 C 115.75346,608.02884 115.27349,607.55187 114.67354,607.55187 C 114.05858,607.55187 113.59362,608.02884 113.59362,608.66179 C 113.59362,609.30374 114.05858,609.7762 114.67354,609.7762 z M 114.38856,609.43423 L 114.16357,609.43423 L 114.16357,607.89385 L 114.74853,607.89385 C 115.1085,607.89385 115.28849,608.02884 115.28849,608.33331 C 115.28849,608.60779 115.1085,608.72778 114.88352,608.75628 L 115.33349,609.43423 L 115.06351,609.43423 L 114.65854,608.76678 L 114.38856,608.76678 L 114.38856,609.43423 L 114.67354,608.56879 C 114.86852,608.56879 115.04851,608.5553 115.04851,608.31831 C 115.04851,608.12783 114.86852,608.09333 114.70353,608.09333 L 114.38856,608.09333 L 114.38856,608.56879 L 114.67354,608.56879 L 114.38856,609.43423"
         style="fill:#231f20;fill-rule:evenodd;stroke:none"
         id="path7536" />
      <path
         d="M 21.680474,636.5867 L 19.475639,636.5867 L 20.555558,632.92548 L 20.570557,632.92548 L 21.680474,636.5867 z M 17.870758,638.97903 L 18.755692,638.97903 L 19.265654,637.34115 L 21.905457,637.34115 L 22.40042,638.97903 L 23.390347,638.97903 L 21.155513,632.11704 L 20.045596,632.11704 L 17.870758,638.97903"
         style="fill:#231f20;fill-rule:evenodd;stroke:none"
         id="path7538" />
      <path
         d="M 26.735097,638.97903 L 26.735097,635.65677 C 26.735097,635.17381 26.600107,634.72684 25.970154,634.72684 C 25.730172,634.72684 25.415195,634.86933 25.295204,635.05082 C 25.145216,635.2878 25.115218,635.57278 25.115218,635.74677 L 25.115218,638.97903 L 24.335276,638.97903 L 24.335276,635.17531 C 24.335276,634.84383 24.320277,634.51086 24.290279,634.17788 L 25.115218,634.17788 L 25.115218,634.78384 L 25.130217,634.78384 C 25.3552,634.26938 25.775169,634.08639 26.330127,634.08639 C 26.765095,634.08639 27.275057,634.26938 27.455043,634.70884 C 27.710024,634.19288 28.144992,634.08639 28.594958,634.08639 C 29.089921,634.08639 29.899861,634.20188 29.899861,635.3343 L 29.899861,638.97903 L 29.119919,638.97903 L 29.119919,635.65677 C 29.119919,635.17381 28.984929,634.72684 28.354976,634.72684 C 28.069997,634.72684 27.980004,634.73734 27.77002,634.90833 C 27.545037,635.09732 27.50004,635.57278 27.50004,635.75277 L 27.50004,638.97903 L 26.735097,638.97903"
         style="fill:#231f20;fill-rule:evenodd;stroke:none"
         id="path7540" />
      <path
         d="M 32.164692,636.23723 C 32.179691,634.91133 32.584661,634.67435 33.079624,634.67435 C 33.649581,634.67435 34.039552,634.84533 34.039552,636.23723 L 32.164692,636.23723 z M 34.864491,636.82669 L 34.864491,636.41872 C 34.864491,634.83484 34.534515,634.08489 33.154618,634.08489 C 31.504741,634.08489 31.339753,635.2428 31.339753,636.6467 C 31.339753,638.76304 32.134694,639.06902 33.154618,639.06902 C 34.159543,639.06902 34.819494,638.58156 34.834493,637.51814 L 33.964558,637.51814 C 33.949559,638.0026 33.66458,638.42857 33.139619,638.42857 C 32.524665,638.42857 32.164692,638.16309 32.164692,636.82669 L 34.864491,636.82669"
         style="fill:#231f20;fill-rule:evenodd;stroke:none"
         id="path7542" />
      <path
         d="M 37.14432,634.90383 L 37.159319,634.90383 C 37.489295,634.17188 37.879266,634.08489 38.644209,634.08489 L 38.644209,634.89483 C 38.584213,634.88583 38.509219,634.87533 38.434224,634.85883 C 38.374229,634.84833 38.299234,634.83934 38.22424,634.83934 C 37.369304,634.83934 37.14432,635.49629 37.14432,636.14274 L 37.14432,638.97903 L 36.379378,638.97903 L 36.379378,634.17788 L 37.14432,634.17788 L 37.14432,634.90383"
         style="fill:#231f20;fill-rule:evenodd;stroke:none"
         id="path7544" />
      <path
         d="M 40.429075,638.97903 L 39.649134,638.97903 L 39.649134,634.17788 L 40.429075,634.17788 L 40.429075,638.97903 z M 39.604137,632.11704 L 40.474072,632.11704 L 40.474072,632.94498 L 39.604137,632.94498 L 39.604137,632.11704"
         style="fill:#231f20;fill-rule:evenodd;stroke:none"
         id="path7546" />
      <path
         d="M 44.478773,635.72127 C 44.493772,634.93683 44.103801,634.72684 43.788825,634.72684 C 43.188869,634.72684 42.7839,635.01182 42.7839,636.31822 C 42.7839,637.87061 42.978885,638.42857 43.788825,638.42857 C 43.98381,638.42857 44.52377,638.23958 44.493772,637.37715 L 45.303712,637.37715 C 45.333709,638.72405 44.328784,639.06902 43.803824,639.06902 C 42.768901,639.06902 41.97396,638.76304 41.97396,636.6497 C 41.97396,635.2488 42.138948,634.08639 43.803824,634.08639 C 44.763752,634.08639 45.333709,634.65185 45.288713,635.72127 L 44.478773,635.72127"
         style="fill:#231f20;fill-rule:evenodd;stroke:none"
         id="path7548" />
      <path
         d="M 49.158424,636.5867 C 49.233419,638.13459 48.633463,638.42857 48.153499,638.42857 C 47.628538,638.42857 47.403555,638.0101 47.403555,637.54513 C 47.403555,636.52971 48.40848,636.5972 49.158424,636.5867 z M 49.173423,638.97903 L 50.01336,638.97903 C 49.968364,638.60705 49.923367,638.21708 49.923367,637.83461 L 49.923367,635.52478 C 49.923367,634.72234 49.608391,634.08489 48.363483,634.08489 C 47.34356,634.08489 46.773602,634.45536 46.743604,635.52478 L 47.583542,635.52478 C 47.538545,635.02382 47.823524,634.67435 48.348485,634.67435 C 49.173423,634.67435 49.173423,635.3643 49.158424,635.99875 C 48.048507,635.97025 46.638612,636.03625 46.638612,637.48964 C 46.638612,638.40907 46.923591,639.06902 47.943515,639.06902 C 48.54347,639.06902 48.918442,638.83054 49.158424,638.27708 L 49.173423,638.27708 L 49.173423,638.97903"
         style="fill:#231f20;fill-rule:evenodd;stroke:none"
         id="path7550" />
      <path
         d="M 54.228046,638.97903 L 54.228046,635.65677 C 54.228046,635.14531 54.048059,634.72684 53.37311,634.72684 C 52.503175,634.72684 52.383184,635.48729 52.383184,636.13074 L 52.383184,638.97903 L 51.603242,638.97903 L 51.603242,635.16781 C 51.603242,634.83484 51.588243,634.50486 51.558245,634.17788 L 52.383184,634.17788 L 52.383184,634.80334 L 52.42818,634.80334 C 52.728158,634.25888 53.088131,634.08639 53.718084,634.08639 C 54.738008,634.08639 54.992989,634.70884 54.992989,635.65677 L 54.992989,638.97903 L 54.228046,638.97903"
         style="fill:#231f20;fill-rule:evenodd;stroke:none"
         id="path7552" />
      <path
         d="M 59.897623,632.87148 L 61.097533,632.87148 C 61.292519,632.87148 62.072461,632.97647 62.072461,634.0294 C 62.072461,635.11231 61.217524,635.20831 60.857551,635.20831 L 59.897623,635.20831 L 59.897623,632.87148 z M 59.897623,638.97903 L 59.897623,635.96125 L 61.052537,635.96125 C 61.757484,635.96125 62.972394,635.64178 62.972394,634.07739 C 62.972394,632.45601 61.982467,632.11704 61.052537,632.11704 L 59.012689,632.11704 L 59.012689,638.97903 L 59.897623,638.97903"
         style="fill:#231f20;fill-rule:evenodd;stroke:none"
         id="path7554" />
      <path
         d="M 65.477207,638.42857 C 64.652268,638.42857 64.457283,637.87061 64.457283,636.31822 C 64.457283,635.01182 64.862253,634.72684 65.477207,634.72684 C 66.077162,634.72684 66.482132,635.01182 66.482132,636.31822 C 66.482132,637.87061 66.287146,638.42857 65.477207,638.42857 z M 65.477207,639.06902 C 66.497131,639.06902 67.292071,638.76304 67.292071,636.6497 C 67.292071,635.2488 67.127084,634.08639 65.477207,634.08639 C 63.812331,634.08639 63.647343,635.2488 63.647343,636.6497 C 63.647343,638.76304 64.442284,639.06902 65.477207,639.06902"
         style="fill:#231f20;fill-rule:evenodd;stroke:none"
         id="path7556" />
      <path
         d="M 68.11701,634.17788 L 68.986945,634.17788 L 69.841881,638.31608 L 69.871879,638.31608 L 70.9218,634.17788 L 72.031718,634.17788 L 73.006645,638.31608 L 73.021644,638.31608 L 73.981572,634.17788 L 74.806511,634.17788 L 73.531606,638.97903 L 72.481684,638.97903 L 71.446761,634.89483 L 71.431762,634.89483 L 70.351843,638.97903 L 69.31692,638.97903 L 68.11701,634.17788"
         style="fill:#231f20;fill-rule:evenodd;stroke:none"
         id="path7558" />
      <path
         d="M 76.486385,636.23723 C 76.501384,634.91133 76.906354,634.67435 77.401317,634.67435 C 77.971275,634.67435 78.361245,634.84533 78.361245,636.23723 L 76.486385,636.23723 z M 79.186184,636.82669 L 79.186184,636.41872 C 79.186184,634.83484 78.856208,634.08489 77.476311,634.08489 C 75.826435,634.08489 75.661447,635.2428 75.661447,636.6467 C 75.661447,638.76304 76.456388,639.06902 77.476311,639.06902 C 78.481236,639.06902 79.141187,638.58156 79.156186,637.51814 L 78.286251,637.51814 C 78.271252,638.0026 77.986273,638.42857 77.461313,638.42857 C 76.846358,638.42857 76.486385,638.16309 76.486385,636.82669 L 79.186184,636.82669"
         style="fill:#231f20;fill-rule:evenodd;stroke:none"
         id="path7560" />
      <path
         d="M 81.466014,634.90383 L 81.496012,634.90383 C 81.810988,634.17188 82.215958,634.08489 82.965902,634.08489 L 82.965902,634.89483 C 82.905906,634.88583 82.830912,634.87533 82.755918,634.85883 C 82.695922,634.84833 82.635927,634.83934 82.545933,634.83934 C 81.690997,634.83934 81.466014,635.49629 81.466014,636.14274 L 81.466014,638.97903 L 80.701071,638.97903 L 80.701071,634.17788 L 81.466014,634.17788 L 81.466014,634.90383"
         style="fill:#231f20;fill-rule:evenodd;stroke:none"
         id="path7562" />
      <path
         d="M 89.385423,634.0009 C 89.400422,633.61093 89.370424,633.22096 89.190438,633.00197 C 89.010451,632.78149 88.605481,632.70499 88.425495,632.70499 C 87.705548,632.70499 87.42057,633.14296 87.390572,633.23895 C 87.360574,633.31545 87.195586,633.48644 87.195586,634.66835 L 87.195586,636.50571 C 87.195586,638.19158 87.750545,638.39107 88.410496,638.39107 C 88.680476,638.39107 89.490415,638.29658 89.490415,636.95418 L 90.390348,636.95418 C 90.435345,639.12452 88.905459,639.12452 88.455492,639.12452 C 87.615555,639.12452 86.295653,639.06752 86.295653,636.40072 L 86.295653,634.45836 C 86.295653,632.51751 87.15059,631.97005 88.500489,631.97005 C 89.850388,631.97005 90.375349,632.669 90.285356,634.0009 L 89.385423,634.0009"
         style="fill:#231f20;fill-rule:evenodd;stroke:none"
         id="path7564" />
      <path
         d="M 93.420122,638.42857 C 92.610182,638.42857 92.415197,637.87061 92.415197,636.31822 C 92.415197,635.01182 92.820167,634.72684 93.420122,634.72684 C 94.020077,634.72684 94.440046,635.01182 94.440046,636.31822 C 94.440046,637.87061 94.24506,638.42857 93.420122,638.42857 z M 93.420122,639.06902 C 94.440046,639.06902 95.249985,638.76304 95.249985,636.6497 C 95.249985,635.2488 95.084998,634.08639 93.420122,634.08639 C 91.770245,634.08639 91.605257,635.2488 91.605257,636.6497 C 91.605257,638.76304 92.400198,639.06902 93.420122,639.06902"
         style="fill:#231f20;fill-rule:evenodd;stroke:none"
         id="path7566" />
      <path
         d="M 99.269686,638.97903 L 99.269686,635.65677 C 99.269686,635.14531 99.089699,634.72684 98.414749,634.72684 C 97.559813,634.72684 97.424823,635.48729 97.424823,636.13074 L 97.424823,638.97903 L 96.65988,638.97903 L 96.65988,635.16781 C 96.65988,634.83484 96.644881,634.50486 96.614884,634.17788 L 97.424823,634.17788 L 97.424823,634.80334 L 97.46982,634.80334 C 97.769797,634.25888 98.144769,634.08639 98.759724,634.08639 C 99.794646,634.08639 100.03463,634.70884 100.03463,635.65677 L 100.03463,638.97903 L 99.269686,638.97903"
         style="fill:#231f20;fill-rule:evenodd;stroke:none"
         id="path7568" />
      <path
         d="M 101.02455,634.17788 L 101.90949,634.17788 L 102.97441,638.24408 L 102.98941,638.24408 L 104.14432,634.17788 L 104.96926,634.17788 L 103.46937,638.97903 L 102.44945,638.97903 L 101.02455,634.17788"
         style="fill:#231f20;fill-rule:evenodd;stroke:none"
         id="path7570" />
      <path
         d="M 106.72413,636.23723 C 106.73913,634.91133 107.1441,634.67435 107.63906,634.67435 C 108.20902,634.67435 108.59899,634.84533 108.59899,636.23723 L 106.72413,636.23723 z M 109.42393,636.82669 L 109.42393,636.41872 C 109.42393,634.83484 109.09395,634.08489 107.71406,634.08489 C 106.06418,634.08489 105.89919,635.2428 105.89919,636.6467 C 105.89919,638.76304 106.69413,639.06902 107.71406,639.06902 C 108.71898,639.06902 109.37893,638.58156 109.39393,637.51814 L 108.524,637.51814 C 108.509,638.0026 108.22402,638.42857 107.69906,638.42857 C 107.0841,638.42857 106.72413,638.16309 106.72413,636.82669 L 109.42393,636.82669"
         style="fill:#231f20;fill-rule:evenodd;stroke:none"
         id="path7572" />
      <path
         d="M 111.70376,634.90383 L 111.71876,634.90383 C 112.04873,634.17188 112.4537,634.08489 113.20365,634.08489 L 113.20365,634.89483 C 113.14365,634.88583 113.06866,634.87533 112.99366,634.85883 C 112.93367,634.84833 112.85867,634.83934 112.78368,634.83934 C 111.92874,634.83934 111.70376,635.49629 111.70376,636.14274 L 111.70376,638.97903 L 110.93881,638.97903 L 110.93881,634.17788 L 111.70376,634.17788 L 111.70376,634.90383"
         style="fill:#231f20;fill-rule:evenodd;stroke:none"
         id="path7574" />
      <path
         d="M 115.64846,639.06902 C 114.61354,639.06902 113.96859,638.61005 113.99859,637.50914 L 114.86852,637.50914 C 114.86852,637.78362 114.88352,638.42857 115.67846,638.42857 C 116.15843,638.42857 116.5184,638.19158 116.5184,637.69812 C 116.5184,636.84619 114.11858,636.82669 114.11858,635.39429 C 114.11858,634.89183 114.41856,634.08489 115.76845,634.08489 C 116.62339,634.08489 117.35834,634.49436 117.28334,635.44229 L 116.42841,635.44229 C 116.42841,634.93983 116.17342,634.67435 115.67846,634.67435 C 115.25849,634.67435 114.92852,634.90233 114.92852,635.3193 C 114.92852,636.16224 117.32834,636.14424 117.32834,637.60363 C 117.32834,638.65805 116.60839,639.06902 115.64846,639.06902"
         style="fill:#231f20;fill-rule:evenodd;stroke:none"
         id="path7576" />
      <path
         d="M 119.38318,638.97903 L 118.60324,638.97903 L 118.60324,634.17788 L 119.38318,634.17788 L 119.38318,638.97903 z M 118.55825,632.11704 L 119.42818,632.11704 L 119.42818,632.94498 L 118.55825,632.94498 L 118.55825,632.11704"
         style="fill:#231f20;fill-rule:evenodd;stroke:none"
         id="path7578" />
      <path
         d="M 122.59295,638.42857 C 121.78301,638.42857 121.58802,637.87061 121.58802,636.31822 C 121.58802,635.01182 121.99299,634.72684 122.59295,634.72684 C 123.1929,634.72684 123.61287,635.01182 123.61287,636.31822 C 123.61287,637.87061 123.40289,638.42857 122.59295,638.42857 z M 122.59295,639.06902 C 123.61287,639.06902 124.42281,638.76304 124.42281,636.6497 C 124.42281,635.2488 124.25782,634.08639 122.59295,634.08639 C 120.94307,634.08639 120.77808,635.2488 120.77808,636.6497 C 120.77808,638.76304 121.57302,639.06902 122.59295,639.06902"
         style="fill:#231f20;fill-rule:evenodd;stroke:none"
         id="path7580" />
      <path
         d="M 128.44251,638.97903 L 128.44251,635.65677 C 128.44251,635.14531 128.26252,634.72684 127.58757,634.72684 C 126.73264,634.72684 126.59765,635.48729 126.59765,636.13074 L 126.59765,638.97903 L 125.8327,638.97903 L 125.8327,635.16781 C 125.8327,634.83484 125.8177,634.50486 125.78771,634.17788 L 126.59765,634.17788 L 126.59765,634.80334 L 126.64264,634.80334 C 126.94262,634.25888 127.31759,634.08639 127.93255,634.08639 C 128.95247,634.08639 129.20745,634.70884 129.20745,635.65677 L 129.20745,638.97903 L 128.44251,638.97903"
         style="fill:#231f20;fill-rule:evenodd;stroke:none"
         id="path7582" />
    </g>
  </g>
</svg>
